<svg width="15" height="10" viewBox="0 0 15 10" fill="none" xmlns="http://www.w3.org/2000/svg">
<path d="M14.6306 0.948849L5.74236 9.83708C5.69076 9.88873 5.6295 9.9297 5.56206 9.95766C5.49462 9.98561 5.42233 10 5.34933 10C5.27633 10 5.20404 9.98561 5.1366 9.95766C5.06916 9.9297 5.00789 9.88873 4.9563 9.83708L1.0677 5.94848C0.963467 5.84424 0.904907 5.70286 0.904907 5.55545C0.904907 5.40804 0.963467 5.26666 1.0677 5.16242C1.17194 5.05819 1.31332 4.99963 1.46073 4.99963C1.60814 4.99963 1.74952 5.05819 1.85376 5.16242L5.34933 8.65869L13.8445 0.162796C13.9488 0.0585594 14.0901 -1.09831e-09 14.2376 0C14.385 1.09832e-09 14.5263 0.0585594 14.6306 0.162796C14.7348 0.267034 14.7934 0.40841 14.7934 0.555823C14.7934 0.703236 14.7348 0.844612 14.6306 0.948849Z" fill="#9E78CF"/>
</svg>
